# xmcd
#
# Track frame offsets: 
#        150
#        14185
#        28990
#        46835
#        65675
#        78688
#        92750
#        108098
#        121008
#        139823
#
# Disc length: 2085 seconds
#
# Revision: 0
# Processed by: cddbd v1.5.2PL0 Copyright (c) Steve Scherf et al.
# Submitted via: ExactAudioCopyFreeDBPlugin 1.0
#
DISCID=8708230a
DTITLE=Various Artist - Country Classics Vol. II
DYEAR=1988
DGENRE=Country
TTITLE0=George Strait - Am I Blue
TTITLE1=Reba McEntire - The Last One To Know
TTITLE2=Oak Ridge Boys - True Heart
TTITLE3=Glen Campbell - Still Within the Sound Of My Voice
TTITLE4=Waylon Jennings - If Ole Hank Could Only See Us Now
TTITLE5=Steve Wariner - Lynda
TTITLE6=Patty Loveless - You saved Me
TTITLE7=John Anderson - It's Hard To Keep This Ship Together
TTITLE8=Lee Greenwood - If There's Any Justice
TTITLE9=Nanci Griffith - Never Mind
EXTD=
EXTT0=
EXTT1=
EXTT2=
EXTT3=
EXTT4=
EXTT5=
EXTT6=
EXTT7=
EXTT8=
EXTT9=
PLAYORDER=
